<svg xmlns="http://www.w3.org/2000/svg" version="1.1" xmlns:xlink="http://www.w3.org/1999/xlink" xmlns:svgjs="http://svgjs.dev/svgjs" width="2000" height="1710" viewBox="0 0 2000 1710"><g transform="matrix(1,0,0,1,-2.2701263493466968,-2.756791241994165)"><svg viewBox="0 0 290 248" data-background-color="#ffffff" preserveAspectRatio="xMidYMid meet" height="1710" width="2000" xmlns="http://www.w3.org/2000/svg" xmlns:xlink="http://www.w3.org/1999/xlink"><g id="tight-bounds" transform="matrix(1,0,0,1,0.3293196695045708,0.40002634420793015)"><svg viewBox="0 0 289.3415095652174 247.2" height="247.2" width="289.3415095652174"><g><svg viewBox="0 0 289.3415095652174 247.2" height="247.2" width="289.3415095652174"><g><svg viewBox="0 0 289.3415095652174 247.2" height="247.2" width="289.3415095652174"><g id="textblocktransform"><svg viewBox="0 0 289.3415095652174 247.2" height="247.2" width="289.3415095652174" id="textblock"><g><svg viewBox="0 0 289.3415095652174 247.2" height="247.2" width="289.3415095652174"><path d="M288.664 53.02C287.304 27.36 283.427 20.227 283.427 20.227 271.525-6.202 256.671-0.506 243.327 3.292 219.767 3.446 196.303 9.091 172.797 12.119 123.461 12.581 73.703 4.986 24.611 23.717 20 29.464-4.784 24.846 0.82 56.304 2.289 69.39 7.649 83.913 7.485 95.922 8.22 98.026 9.24 93.202 9.675 96.23 11.199 104.39 13.688 100.541 15.729 105.365 12.886 118.246 14.926 128.971 16.871 140.21 13.443 143.135 9.05 141.749 7.077 151.449 6.873 158.479 5.772 157.145 4.561 156.837 3.677 156.632 1.895 157.402 2.194 159.608 3.214 167.152-1.166 171.514 1.582 178.904-0.309 186.91 2.888 193.838 2.453 202.511 2.398 204.255 2.697 205.744 3.173 206.154 5.282 208.361 2.208 212.672 2.534 217.342 24.162 249.262 47.627 227.195 69.785 241.872 75.539 231.608 71.213 245.516 73.512 243.36 75.308 240.846 76.614 251.263 78.64 245.362 78.953 243.668 78.477 239.665 79.593 240.435 80.178 240.846 80.694 240.743 80.776 238.382 80.899 234.841 79.824 237.048 79.538 235.201 82.626 225.861 81.864 248.081 84.762 247.158 84.626 244.438 83.782 240.538 85.51 241.051 87.224 237.151 87.278 233.918 88.802 242.693 88.856 244.592 89.128 245.926 89.563 246.85 94.324 237.305 99.058 250.237 104.05 245.926 107.111 241.205 110.049 248.492 113.15 246.696 114.238 245.259 115.34 242.693 116.388 247.004 129.215 247.928 142.885 244.079 155.046 247.158 187.543 241.41 222.27 249.518 256.535 241.923 264.615 238.998 273.008 234.841 280.883 231.506 280.883 231.506 287.263 222.371 287.263 181.316S288.623 145.393 288.827 112.703C289.031 80.013 289.984 78.679 288.623 53.02Z" opacity="1" fill="#df5155" data-fill-palette-color="tertiary"></path><g transform="matrix(1,0,0,1,55.76832000000002,26.230666666666668)"><svg width="177.80486956521736" viewBox="5 -36.45 33.6 36.800000000000004" height="194.73866666666666" data-palette-color="#ffffff"><path d="M7.3 0.35L7.3 0.35Q6.05 0.35 5 0L5 0 5-36.1Q5.6-36.35 6.2-36.4 6.8-36.45 7.2-36.45L7.2-36.45Q7.75-36.45 8.38-36.4 9-36.35 9.6-36.1L9.6-36.1 21.85-11.85 34.05-36.1Q34.7-36.35 35.25-36.4 35.8-36.45 36.2-36.45L36.2-36.45Q36.75-36.45 37.4-36.4 38.05-36.35 38.6-36.1L38.6-36.1 38.6 0Q37.4 0.35 36.25 0.35L36.25 0.35Q35 0.35 33.95 0L33.95 0 33.95-26.1 23.9-6.15Q23.05-5.8 21.85-5.8 20.65-5.8 19.75-6.15L19.75-6.15 9.65-26.15 9.65 0Q8.45 0.35 7.3 0.35Z" opacity="1" transform="matrix(1,0,0,1,0,0)" fill="#ffffff" class="wordmark-text-0" data-fill-palette-color="quaternary" id="text-0"></path></svg></g></svg></g></svg></g></svg></g><g></g></svg></g><defs></defs></svg><rect width="289.3415095652174" height="247.2" fill="none" stroke="none" visibility="hidden"></rect></g></svg></g></svg>